<svg xmlns="http://www.w3.org/2000/svg" xmlns:xlink="http://www.w3.org/1999/xlink" viewBox="-238 310.2 135 172.8"><animateTransform type="translate" fill="freeze" calcMode="linear" begin="playButton.click" dur=".2s" accumulate="none" xlink:href="#a" restart="always" additive="sum" attributeName="transform" from="0,0" to="-1,-3"/><animateTransform type="translate" fill="freeze" calcMode="linear" begin="playButton.click+1" dur=".2s" accumulate="none" xlink:href="#a" restart="always" additive="sum" attributeName="transform" from="0,0" to="1,3"/><path fill="#FFF" d="M-211.1 471.5l.7 11.2h81.8l.2-2.3c.3-3.9.5-7.8.8-11.7l24.6-7.4v-6.1c0-21.3-10.4-40.8-28.2-53.4 2.4-3.9 4.3-8.1 5.8-12.6 3.4-.9 6.5-2.7 8.9-5.4 3.3-3.6 5.1-8.3 4.9-13.3v-.1-.5c-.1-4.9-2.1-9.6-5.5-13-1.9-1.9-4.2-3.4-6.6-4.3-5.6-24.8-24.6-42.5-46.2-42.5-22.4 0-41.6 18.5-46.6 44.4-2.8 1-5.3 2.7-7.3 5-3.2 3.6-4.9 8.3-4.8 13.3v.7c.3 9 6.7 16.3 15.1 17.8 1.2 2.8 3.2 7 5.3 10.8-18.6 12.4-29.9 32.8-29.9 54.6v6.2l26.9 7.8c.1.3.1.5.1.8z"/><path fill="none" d="M-212.4 459l.5.2v-.2h-.5z"/><path fill="#FFEEDE" d="M-129.6 384.5s.1 0 0 0v-.2c.1.1 0 .2 0 .2zM-221.2 433.1c-3.4 6.7-5.4 14.1-5.7 21.7l14.4 4.2h.5c-.4-6.8-.9-13.5-1.3-20.3l-7.9-5.6zM-118.3 434.9l-7.4 5.2-.9 12.9c-.1 1.4-.2 2.7-.3 4.1l12.6-3.8c-.1-6.4-1.5-12.6-4-18.4zM-124.6 376c1.3-1.4 2-3.2 2-5.1v-.4c0-2.1-.9-4-2.3-5.4-.2-.2-.4-.4-.6-.5-.6-.5-1.4-.9-2.1-1.2V364c.1 1.4.1 2.8.1 4.2 0 3.4-.3 6.8-.8 10 1.4-.4 2.7-1.1 3.7-2.2zM-212.3 365.8v-.1-.4c-.8.3-1.6.7-2.3 1.2-.3.3-.6.5-.9.9-1.3 1.5-2 3.5-2 5.5v.1c.2 3.7 2.8 6.8 6.2 7.3-.7-3.9-1.1-7.9-1.1-12 .1-1 .1-1.7.1-2.5zM-169.9 321.6c-20.3 0-36.8 20.9-36.8 46.5 0 14.2 5 26.9 13 35.4 1.6 1.7 3.2 3.2 5 4.5.7.5 1.5 1.1 2.2 1.5-.2-.5-.5-1-.7-1.5-.4-1.2-.8-2.5-.9-3.8-.1-.7-.1-1.3-.1-2 0-3 .8-5.8 2.2-8.3.6-1 1.2-1.9 2-2.8 1.9-2.2 4.4-4 7.2-5.2 2.2-.9 4.7-1.4 7.3-1.4 3.6 0 7 1 9.9 2.7 2.1 1.3 4 2.9 5.4 4.8.2.3.5.6.7 1 1.7 2.7 2.7 5.8 2.7 9.1 0 1.4-.2 2.7-.5 4-.1.6-.3 1.1-.5 1.7l-.3.9c.4-.2.7-.5 1.1-.8l.1-.1c1.7-1.3 3.4-2.8 4.9-4.5 7.9-8.5 13-21.2 13-35.4-.1-25.4-16.6-46.3-36.9-46.3z"/><path fill="#FFEEDE" d="M-160.2 393.5c-.2-.2-.4-.3-.6-.5-2.3-1.8-5.3-3-8.6-3-2.5 0-4.9.7-6.9 1.8-1 .6-2 1.3-2.8 2.1-1.4 1.4-2.4 3-3 4.8-.4 1.1-.6 2.3-.6 3.5 0 2.1.6 4.1 1.6 5.8 2.2 3.8 6.6 6.4 11.7 6.4s9.5-2.6 11.7-6.5c1-1.7 1.5-3.7 1.5-5.7 0-1.4-.3-2.7-.7-4-.7-1.7-1.8-3.3-3.3-4.7z"/><path fill="#B0ACB0" d="M-209 428.8v.6c.1 1.9.3 3.8.4 5.7.1 1.3.2 2.7.3 4v.6c.1.9.1 1.8.2 2.7.4 5.5.7 11.1 1.1 16.6 0 .6.1 1.1.1 1.7.1 2 .3 4 .4 6l.3 4.2.4 6.7h72.7c.3-4.3.6-8.5.8-12.8.1-2 .3-4 .4-6.1v-.7c.1-2 .3-3.9.4-5.9l.6-8.4c.1-1.3.2-2.6.3-4v-.6c.1-.9.1-1.8.2-2.7.2-2.4.3-4.8.5-7.2v-.6H-209v.2z"/><path fill="#FFF" d="M-142.3 408.1l.1-.1.4-.7c-.2.2-.4.5-.7.7-7.4 7.7-17 12.4-27.4 12.4-10.2 0-19.5-4.4-26.9-11.8-9 4.8-16.4 11.6-21.6 19.7l4.6 3.2c.1 1.3.2 2.7.3 4v.6c.1.9.1 1.8.2 2.7.4 6.8.9 13.5 1.3 20.3v.2c.1 2 .3 4 .4 6 .1 2.2.3 4.4.4 6.5l.7 11.2h81.8l.2-2.3c.4-5.8.8-11.7 1.2-17.5.1-1.8.2-3.5.3-5.3 0-.3 0-.5.1-.8.1-1.4.2-2.7.3-4.1l.9-12.9c.1-1.3.2-2.6.3-4v-.6c.1-.9.1-1.8.2-2.7l4.4-3.1c-4.8-8.7-12.2-16.2-21.5-21.6zm12.4 21.2c-.2 2.4-.3 4.8-.5 7.2-.1.9-.1 1.8-.2 2.7v.6c-.1 1.3-.2 2.6-.3 4l-.6 8.4c-.1 2-.3 3.9-.4 5.8v.7c-.1 2-.3 4-.4 6.1-.3 4.3-.6 8.5-.8 12.8h-72.7l-.4-6.7-.3-4.2c-.1-2-.3-4-.4-6 0-.6-.1-1.1-.1-1.7-.4-5.5-.7-11.1-1.1-16.6-.1-.9-.1-1.8-.2-2.7v-.6c-.1-1.3-.2-2.7-.3-4-.1-1.9-.3-3.8-.4-5.7v-.6h79.2c0 .2 0 .3-.1.5z"/><path d="M-164.1 375.9v-.6h-11.5V381h11.5M-186.5 368.1c-1.2 0-2.2.6-2.9 1.5-.4.6-.7 1.3-.7 2.1 0 2 1.6 3.7 3.5 3.7s3.6-1.7 3.6-3.7c0-.8-.2-1.5-.7-2.1-.5-.9-1.6-1.5-2.8-1.5zM-154.6 367c-1.4 0-2.6.9-3.2 2.1-.2.5-.3 1-.3 1.6 0 2 1.6 3.7 3.5 3.7 2 0 3.5-1.7 3.5-3.7 0-.6-.1-1.1-.3-1.6-.5-1.3-1.7-2.1-3.2-2.1z"/><path id="a" d="M-177.21 357.698l-18.15 1.3-.408-5.686 18.152-1.3z"/><path d="M-162.064 352.625l18.147 1.392-.436 5.684-18.147-1.39zM-170.9 402.8c.5.1 1 .2 1.5.2.7 0 1.3-.1 1.9-.3 3.2-.8 5.5-3.7 5.5-7.1h-14.8c0 3.5 2.5 6.5 5.9 7.2z"/><path d="M-211.9 459.2l-.5-.2-14.4-4.2c.3-7.6 2.3-15 5.7-21.7l7.9 5.6c-.1-.9-.1-1.8-.2-2.7v-.6c-.1-1.3-.2-2.7-.3-4l-4.6-3.2c5.2-8.1 12.6-14.9 21.6-19.7 7.3 7.4 16.7 11.8 26.9 11.8 10.4 0 21.9-3.2 27.4-12.4.2-.2-.1.4.2.1l.1-.1-.1.1c9.3 5.4 16.7 12.9 21.5 21.7l-4.4 3.1c-.1.9-.1 1.8-.2 2.7v.6c-.1 1.3-.2 2.6-.3 4l7.4-5.2c2.4 5.8 3.8 12 4.1 18.4l-12.6 3.8c0 .3 0 .5-.1.8-.1 1.8-.2 3.5-.3 5.3l18.7-5.7v-2.1c0-21.2-11.3-40.6-30.3-51.9 4.1-5.4 7.3-11.9 9.2-19.1v-.2V384.5c3.5-.1 6.7-1.5 9.1-4.2 2.3-2.6 3.6-5.9 3.5-9.5v-.2-.4c-.1-3.5-1.5-6.8-3.9-9.3-2.1-2.1-4.7-3.3-7.5-3.7-4-23.7-21.1-41.5-41.5-41.5-21 0-38.4 18.8-41.8 43.4-3.1.4-5.9 1.8-8 4.2-2.3 2.6-3.5 6-3.4 9.5v.6c.3 7.2 6 12.9 12.9 12.9h.5v-.3c2 6.8 5.2 12.9 9.1 18-19.8 11-32 31.1-32 52.8v2.1l21.1 6.1c-.2-1.8-.4-3.8-.5-5.8zm42-137.6c20.3 0 36.8 20.9 36.8 46.5 0 14.2-5 26.9-13 35.4-1.5 1.6-3.2 3.1-4.9 4.5l-.1.1c-.3.3-.7.5-1.1.8l.3-.9c.2-.5.4-1.1.5-1.7.3-1.3.5-2.6.5-4 0-3.3-1-6.5-2.7-9.1-.2-.3-.4-.7-.7-1-1.4-1.9-3.3-3.6-5.4-4.8-2.9-1.7-6.3-2.7-9.9-2.7-2.6 0-5.1.5-7.3 1.4-2.8 1.1-5.3 2.9-7.2 5.2-.7.9-1.4 1.8-2 2.8-1.4 2.5-2.2 5.3-2.2 8.3 0 .7 0 1.4.1 2 .2 1.3.5 2.6.9 3.8.2.5.4 1 .7 1.5-.8-.5-1.5-1-2.2-1.5-1.8-1.3-3.4-2.9-5-4.5-7.9-8.5-13-21.2-13-35.4.2-25.8 16.7-46.7 36.9-46.7zm-12.8 80.7c0-1.2.2-2.4.6-3.5.6-1.8 1.6-3.5 3-4.8.8-.8 1.7-1.5 2.8-2.1 2-1.1 4.4-1.8 6.9-1.8 3.3 0 6.3 1.1 8.6 3 .2.2.4.3.6.5 1.5 1.3 2.6 2.9 3.3 4.7.5 1.3.7 2.6.7 4 0 2.1-.6 4-1.5 5.7-2.2 3.9-6.6 6.5-11.7 6.5-5 0-9.4-2.6-11.7-6.4-1-1.8-1.6-3.7-1.6-5.8zm55.1-38.5v-.4c.8.3 1.5.7 2.1 1.2.2.2.4.3.6.5 1.4 1.4 2.2 3.3 2.3 5.4v.4c-.1 1.9-.8 3.7-2 5.1-1 1.1-2.2 1.8-3.6 2.1.5-3.2.8-6.6.8-10 0-1.4-.1-2.8-.1-4.2-.1 0-.1-.1-.1-.1zm-89.8 9.1c0-.1 0-.1 0 0-.1-2.1.6-4.1 1.9-5.6l.9-.9c.7-.5 1.4-.9 2.3-1.2v2.9c0 4.1.4 8.1 1.1 12-3.3-.5-6-3.5-6.2-7.2z"/><path fill="#FFF" d="M-214 424.8h88.9l.2 8.1 4.4-3.1-4.6-7-4.1-4.7-5.1-4.6-5.2-3.8-2.9-2s-1 2.7-6 6.2-12.8 6.1-19.9 6c-8.2-.1-14.1-1-20.5-5.2-5.7-3.7-7.8-6.2-7.8-6.2s-4 1.6-7.8 4.6c-2.5 2-4.7 4-7 6.6-5.7 6.2-6.9 8.6-6.9 8.6l4.8 3.1-.5-6.6z"/></svg>