<?xml version="1.0" encoding="utf-8"?>
<!-- Generator: Adobe Illustrator 18.1.0, SVG Export Plug-In . SVG Version: 6.00 Build 0)  -->
<svg version="1.1" id="Layer_1" xmlns="http://www.w3.org/2000/svg" xmlns:xlink="http://www.w3.org/1999/xlink" x="0px" y="0px"
	 viewBox="-238 310.2 135 172.8" enable-background="new -238 310.2 135 172.8" xml:space="preserve">
<animateTransform  type="translate" fill="freeze" calcMode="linear" begin="playButton.click" dur=".2s" accumulate="none" xlink:href="#rightBrow" restart="always" additive="sum" attributeName="transform" from="0,0" to="-1,-3">
	</animateTransform>
<animateTransform  type="translate" fill="freeze" calcMode="linear" begin="playButton.click+1" dur=".2s" accumulate="none" xlink:href="#rightBrow" restart="always" additive="sum" attributeName="transform" from="0,0" to="1,3">
	</animateTransform>
<path fill="#FFFFFF" d="M-211.1,471.5l0.7,11.2h81.8l0.2-2.3c0.3-3.9,0.5-7.8,0.8-11.7l24.6-7.4v-6.1c0-21.3-10.4-40.8-28.2-53.4
	c2.4-3.9,4.3-8.1,5.8-12.6c3.4-0.9,6.5-2.7,8.9-5.4c3.3-3.6,5.1-8.3,4.9-13.3c0,0,0-0.1,0-0.1c0-0.1,0-0.3,0-0.5
	c-0.1-4.9-2.1-9.6-5.5-13c-1.9-1.9-4.2-3.4-6.6-4.3c-5.6-24.8-24.6-42.5-46.2-42.5c-22.4,0-41.6,18.5-46.6,44.4
	c-2.8,1-5.3,2.7-7.3,5c-3.2,3.6-4.9,8.3-4.8,13.3l0,0.1c0,0.2,0,0.4,0,0.6c0.3,9,6.7,16.3,15.1,17.8c1.2,2.8,3.2,7,5.3,10.8
	c-18.6,12.4-29.9,32.8-29.9,54.6v6.2l26.9,7.8C-211.1,471-211.1,471.2-211.1,471.5z"/>
<path fill="none" d="M-212.4,459l0.5,0.2c0-0.1,0-0.1,0-0.2L-212.4,459z"/>
<path fill="#FFEEDE" d="M-129.6,384.5C-129.6,384.5-129.5,384.5-129.6,384.5l0-0.2C-129.5,384.4-129.6,384.5-129.6,384.5z"/>
<path fill="#FFEEDE" d="M-221.2,433.1c-3.4,6.7-5.4,14.1-5.7,21.7l14.4,4.2l0.5,0c-0.4-6.8-0.9-13.5-1.3-20.3L-221.2,433.1z"/>
<path fill="#FFEEDE" d="M-118.3,434.9l-7.4,5.2c-0.3,4.3-0.6,8.6-0.9,12.9c-0.1,1.4-0.2,2.7-0.3,4.1l12.6-3.8
	C-114.4,446.9-115.8,440.7-118.3,434.9z"/>
<path fill="#FFEEDE" d="M-124.6,376c1.3-1.4,2-3.2,2-5.1c0-0.1,0-0.3,0-0.4c0-2.1-0.9-4-2.3-5.4c-0.2-0.2-0.4-0.4-0.6-0.5
	c-0.6-0.5-1.4-0.9-2.1-1.2c0,0.1,0,0.3,0,0.4c0,0.1,0,0.1,0,0.2c0.1,1.4,0.1,2.8,0.1,4.2c0,3.4-0.3,6.8-0.8,10
	C-126.9,377.8-125.6,377.1-124.6,376z"/>
<path fill="#FFEEDE" d="M-212.3,365.8c0,0,0-0.1,0-0.1c0-0.1,0-0.3,0-0.4c-0.8,0.3-1.6,0.7-2.3,1.2c-0.3,0.3-0.6,0.5-0.9,0.9
	c-1.3,1.5-2,3.5-2,5.5c0,0,0,0,0,0.1c0.2,3.7,2.8,6.8,6.2,7.3c-0.7-3.9-1.1-7.9-1.1-12C-212.3,367.3-212.3,366.6-212.3,365.8z"/>
<path fill="#FFEEDE" d="M-169.9,321.6c-20.3,0-36.8,20.9-36.8,46.5c0,14.2,5,26.9,13,35.4c1.6,1.7,3.2,3.2,5,4.5c0,0,0,0,0,0
	c0.7,0.5,1.5,1.1,2.2,1.5c-0.2-0.5-0.5-1-0.7-1.5c-0.4-1.2-0.8-2.5-0.9-3.8c-0.1-0.7-0.1-1.3-0.1-2c0-3,0.8-5.8,2.2-8.3
	c0.6-1,1.2-1.9,2-2.8c1.9-2.2,4.4-4,7.2-5.2c2.2-0.9,4.7-1.4,7.3-1.4c3.6,0,7,1,9.9,2.7c2.1,1.3,4,2.9,5.4,4.8
	c0.2,0.3,0.5,0.6,0.7,1c1.7,2.7,2.7,5.8,2.7,9.1c0,1.4-0.2,2.7-0.5,4c-0.1,0.6-0.3,1.1-0.5,1.7c-0.1,0.3-0.2,0.6-0.3,0.9
	c0.4-0.2,0.7-0.5,1.1-0.8c0,0,0.1-0.1,0.1-0.1c1.7-1.3,3.4-2.8,4.9-4.5c7.9-8.5,13-21.2,13-35.4
	C-133.1,342.5-149.6,321.6-169.9,321.6z"/>
<path fill="#FFEEDE" d="M-160.2,393.5c-0.2-0.2-0.4-0.3-0.6-0.5c-2.3-1.8-5.3-3-8.6-3c-2.5,0-4.9,0.7-6.9,1.8c-1,0.6-2,1.3-2.8,2.1
	c-1.4,1.4-2.4,3-3,4.8c-0.4,1.1-0.6,2.3-0.6,3.5c0,2.1,0.6,4.1,1.6,5.8c2.2,3.8,6.6,6.4,11.7,6.4c5.1,0,9.5-2.6,11.7-6.5
	c1-1.7,1.5-3.7,1.5-5.7c0-1.4-0.3-2.7-0.7-4C-157.6,396.5-158.7,394.9-160.2,393.5z"/>
<path fill="#B0ACB0" d="M-209,428.8c0,0.2,0,0.4,0,0.6c0.1,1.9,0.3,3.8,0.4,5.7c0.1,1.3,0.2,2.7,0.3,4c0,0.2,0,0.4,0,0.6
	c0.1,0.9,0.1,1.8,0.2,2.7c0.4,5.5,0.7,11.1,1.1,16.6c0,0.6,0.1,1.1,0.1,1.7c0.1,2,0.3,4,0.4,6c0.1,1.4,0.2,2.8,0.3,4.2l0.4,6.7h72.7
	c0.3-4.3,0.6-8.5,0.8-12.8c0.1-2,0.3-4,0.4-6.1c0-0.2,0-0.4,0-0.7c0.1-2,0.3-3.9,0.4-5.9c0.2-2.8,0.4-5.6,0.6-8.4
	c0.1-1.3,0.2-2.6,0.3-4c0-0.2,0-0.4,0-0.6c0.1-0.9,0.1-1.8,0.2-2.7c0.2-2.4,0.3-4.8,0.5-7.2c0-0.2,0-0.4,0-0.6H-209L-209,428.8z"/>
<path fill="#FFFFFF" d="M-142.3,408.1l0.1-0.1l0.4-0.7c-0.2,0.2-0.4,0.5-0.7,0.7c-7.4,7.7-17,12.4-27.4,12.4
	c-10.2,0-19.5-4.4-26.9-11.8c-9,4.8-16.4,11.6-21.6,19.7l4.6,3.2c0.1,1.3,0.2,2.7,0.3,4c0,0.2,0,0.4,0,0.6c0.1,0.9,0.1,1.8,0.2,2.7
	c0.4,6.8,0.9,13.5,1.3,20.3c0,0.1,0,0.1,0,0.2c0.1,2,0.3,4,0.4,6c0.1,2.2,0.3,4.4,0.4,6.5l0.7,11.2h81.8l0.2-2.3
	c0.4-5.8,0.8-11.7,1.2-17.5c0.1-1.8,0.2-3.5,0.3-5.3c0-0.3,0-0.5,0.1-0.8c0.1-1.4,0.2-2.7,0.3-4.1c0.3-4.3,0.6-8.6,0.9-12.9
	c0.1-1.3,0.2-2.6,0.3-4c0-0.2,0-0.4,0-0.6c0.1-0.9,0.1-1.8,0.2-2.7l4.4-3.1C-125.6,421-133,413.5-142.3,408.1z M-129.9,429.3
	c-0.2,2.4-0.3,4.8-0.5,7.2c-0.1,0.9-0.1,1.8-0.2,2.7c0,0.2,0,0.4,0,0.6c-0.1,1.3-0.2,2.6-0.3,4c-0.2,2.8-0.4,5.6-0.6,8.4
	c-0.1,2-0.3,3.9-0.4,5.8c0,0.2,0,0.4,0,0.7c-0.1,2-0.3,4-0.4,6.1c-0.3,4.3-0.6,8.5-0.8,12.8h-72.7l-0.4-6.7
	c-0.1-1.4-0.2-2.8-0.3-4.2c-0.1-2-0.3-4-0.4-6c0-0.6-0.1-1.1-0.1-1.7c-0.4-5.5-0.7-11.1-1.1-16.6c-0.1-0.9-0.1-1.8-0.2-2.7
	c0-0.2,0-0.4,0-0.6c-0.1-1.3-0.2-2.7-0.3-4c-0.1-1.9-0.3-3.8-0.4-5.7c0-0.2,0-0.4,0-0.6h79.2C-129.8,429-129.8,429.1-129.9,429.3z"
	/>
<polygon points="-164.1,375.9 -164.1,375.3 -175.6,375.3 -175.6,375.9 -175.6,381 -164.1,381 "/>
<path d="M-186.5,368.1c-1.2,0-2.2,0.6-2.9,1.5c-0.4,0.6-0.7,1.3-0.7,2.1c0,2,1.6,3.7,3.5,3.7s3.6-1.7,3.6-3.7c0-0.8-0.2-1.5-0.7-2.1
	C-184.2,368.7-185.3,368.1-186.5,368.1z"/>
<path d="M-154.6,367c-1.4,0-2.6,0.9-3.2,2.1c-0.2,0.5-0.3,1-0.3,1.6c0,2,1.6,3.7,3.5,3.7c2,0,3.5-1.7,3.5-3.7c0-0.6-0.1-1.1-0.3-1.6
	C-151.9,367.8-153.1,367-154.6,367z"/>
<rect id="rightBrow" x="-195.6" y="352.6" transform="matrix(-0.9974 7.140340e-02 -7.140340e-02 -0.9974 -347.1234 723.3475)" width="18.2" height="5.7"/>
<rect x="-162.3" y="353.3" transform="matrix(0.9971 7.649768e-02 -7.649768e-02 0.9971 26.792 12.7652)" width="18.2" height="5.7"/>
<path d="M-170.9,402.8c0.5,0.1,1,0.2,1.5,0.2c0.7,0,1.3-0.1,1.9-0.3c3.2-0.8,5.5-3.7,5.5-7.1h-0.9h-13.9c0,0,0,0,0,0
	C-176.8,399.1-174.3,402.1-170.9,402.8z"/>
<path d="M-211.9,459.2l-0.5-0.2l-14.4-4.2c0.3-7.6,2.3-15,5.7-21.7l7.9,5.6c-0.1-0.9-0.1-1.8-0.2-2.7c0-0.2,0-0.4,0-0.6
	c-0.1-1.3-0.2-2.7-0.3-4l-4.6-3.2c5.2-8.1,12.6-14.9,21.6-19.7c7.3,7.4,16.7,11.8,26.9,11.8c10.4,0,21.9-3.2,27.4-12.4
	c0.2-0.2-0.1,0.4,0.2,0.1l0.1-0.1l-0.1,0.1c9.3,5.4,16.7,12.9,21.5,21.7l-4.4,3.1c-0.1,0.9-0.1,1.8-0.2,2.7c0,0.2,0,0.4,0,0.6
	c-0.1,1.3-0.2,2.6-0.3,4l7.4-5.2c2.4,5.8,3.8,12,4.1,18.4l-12.6,3.8c0,0.3,0,0.5-0.1,0.8c-0.1,1.8-0.2,3.5-0.3,5.3l18.7-5.7v-2.1
	c0-21.2-11.3-40.6-30.3-51.9c4.1-5.4,7.3-11.9,9.2-19.1c0-0.1,0-0.1,0-0.2l0,0.2l0,0.1c3.5-0.1,6.7-1.5,9.1-4.2
	c2.3-2.6,3.6-5.9,3.5-9.5c0-0.1,0-0.1,0-0.2c0-0.1,0-0.3,0-0.4c-0.1-3.5-1.5-6.8-3.9-9.3c-2.1-2.1-4.7-3.3-7.5-3.7
	c-4-23.7-21.1-41.5-41.5-41.5c-21,0-38.4,18.8-41.8,43.4c-3.1,0.4-5.9,1.8-8,4.2c-2.3,2.6-3.5,6-3.4,9.5c0,0,0,0,0,0.1
	c0,0.2,0,0.3,0,0.5c0.3,7.2,6,12.9,12.9,12.9c0.2,0,0.3,0,0.5,0l0-0.3c2,6.8,5.2,12.9,9.1,18c-19.8,11-32,31.1-32,52.8v2.1l21.1,6.1
	C-211.6,463.2-211.8,461.2-211.9,459.2z M-169.9,321.6c20.3,0,36.8,20.9,36.8,46.5c0,14.2-5,26.9-13,35.4c-1.5,1.6-3.2,3.1-4.9,4.5
	c0,0-0.1,0.1-0.1,0.1c-0.3,0.3-0.7,0.5-1.1,0.8c0.1-0.3,0.2-0.6,0.3-0.9c0.2-0.5,0.4-1.1,0.5-1.7c0.3-1.3,0.5-2.6,0.5-4
	c0-3.3-1-6.5-2.7-9.1c-0.2-0.3-0.4-0.7-0.7-1c-1.4-1.9-3.3-3.6-5.4-4.8c-2.9-1.7-6.3-2.7-9.9-2.7c-2.6,0-5.1,0.5-7.3,1.4
	c-2.8,1.1-5.3,2.9-7.2,5.2c-0.7,0.9-1.4,1.8-2,2.8c-1.4,2.5-2.2,5.3-2.2,8.3c0,0.7,0,1.4,0.1,2c0.2,1.3,0.5,2.6,0.9,3.8
	c0.2,0.5,0.4,1,0.7,1.5c-0.8-0.5-1.5-1-2.2-1.5c0,0,0,0,0,0c-1.8-1.3-3.4-2.9-5-4.5c-7.9-8.5-13-21.2-13-35.4
	C-206.6,342.5-190.1,321.6-169.9,321.6z M-182.7,402.3c0-1.2,0.2-2.4,0.6-3.5c0.6-1.8,1.6-3.5,3-4.8c0.8-0.8,1.7-1.5,2.8-2.1
	c2-1.1,4.4-1.8,6.9-1.8c3.3,0,6.3,1.1,8.6,3c0.2,0.2,0.4,0.3,0.6,0.5c1.5,1.3,2.6,2.9,3.3,4.7c0.5,1.3,0.7,2.6,0.7,4
	c0,2.1-0.6,4-1.5,5.7c-2.2,3.9-6.6,6.5-11.7,6.5c-5,0-9.4-2.6-11.7-6.4C-182.1,406.3-182.7,404.4-182.7,402.3z M-127.6,363.8
	c0-0.1,0-0.3,0-0.4c0.8,0.3,1.5,0.7,2.1,1.2c0.2,0.2,0.4,0.3,0.6,0.5c1.4,1.4,2.2,3.3,2.3,5.4c0,0.1,0,0.3,0,0.4
	c-0.1,1.9-0.8,3.7-2,5.1c-1,1.1-2.2,1.8-3.6,2.1c0.5-3.2,0.8-6.6,0.8-10c0-1.4-0.1-2.8-0.1-4.2
	C-127.6,363.9-127.6,363.8-127.6,363.8z M-217.4,372.9C-217.4,372.8-217.4,372.8-217.4,372.9c-0.1-2.1,0.6-4.1,1.9-5.6
	c0.3-0.3,0.6-0.6,0.9-0.9c0.7-0.5,1.4-0.9,2.3-1.2c0,0.1,0,0.3,0,0.4c0,0,0,0.1,0,0.1c0,0.8,0,1.6,0,2.4c0,4.1,0.4,8.1,1.1,12
	C-214.5,379.6-217.2,376.6-217.4,372.9z"/>
<path fill="#FFFFFF" d="M-214,424.8h88.9l0.2,8.1l4.4-3.1l-4.6-7l-4.1-4.7l-5.1-4.6l-5.2-3.8l-2.9-2c0,0-1,2.7-6,6.2
	c-5,3.5-12.8,6.1-19.9,6c-8.2-0.1-14.1-1-20.5-5.2c-5.7-3.7-7.8-6.2-7.8-6.2s-4,1.6-7.8,4.6c-2.5,2-4.7,4-7,6.6
	c-5.7,6.2-6.9,8.6-6.9,8.6l4.8,3.1L-214,424.8z"/>
</svg>
